# xmcd
# 
# Track frame offsets:
#     150
#     11763
#     27235
#     36483
#     48617
#     65724
#     79605
#     95579
#     109669
#     131909
#     142306
#     155514
#     168444
#     181408
# 
# Disc length: 2626
# 
# Revision: 2
# Processed by: cddbd v1.5.2PL0 Copyright (c) Steve Scherf et al.
# Submitted via: fre:ac v1.0.17
# 
DISCID=cc0a400e
DTITLE=Various Artist - Fado and The City CD3
DYEAR=2000
DGENRE=Fado
TTITLE0=Antonio Rocha - Neovo Fado Alegre
TTITLE1=Natercia Da Conceicao - Nossa Senhora Do Fado
TTITLE2=Ze Freire - De Xaile E Lenco
TTITLE3=Candida Ramos - Horas Certas
TTITLE4=F. Carvalhinho - Rapsodia Antiga
TTITLE5=Celeste maria - Oferece O Teu Amour
TTITLE6=Manuel Azevedo Coutinho - Saudades Do Meu Pais
TTITLE7=Beatriz Da Conceicao - Ja me Deixou
TTITLE8=Alfredo Marceneiro - Remorso
TTITLE9=Saudada Dos Santos - Nao Te Importes Do Que Dizem
TTITLE10=Nuno De Aguiar - Trocaste
TTITLE11=Antonio Bessa - Variacoes Em Re Maior
TTITLE12=Maria Valejo - Pedacos De Vida
TTITLE13=Vasco Rafael - Vinha Dizer Adeus
EXTD=
EXTT0=
EXTT1=
EXTT2=
EXTT3=
EXTT4=
EXTT5=
EXTT6=
EXTT7=
EXTT8=
EXTT9=
EXTT10=
EXTT11=
EXTT12=
EXTT13=
PLAYORDER=
